<svg width="20" height="20" viewBox="0 0 20 20" fill="none" xmlns="http://www.w3.org/2000/svg">
<path d="M14.9974 17.1903L17.1405 9.60692C17.3209 8.96873 16.8414 8.33496 16.1782 8.33496H11.6145C11.3214 8.33496 11.1046 8.06236 11.1705 7.77684L11.3786 6.875C11.5695 6.04777 11.6308 5.19591 11.5603 4.34987L11.522 3.89025C11.4809 3.39719 11.2664 2.93465 10.9165 2.58479C10.5965 2.26476 10.1624 2.08496 9.7098 2.08496H9.61015C9.33643 2.08496 9.08422 2.23336 8.95129 2.47264L7.84377 4.46618C7.34704 5.36029 6.60663 6.09498 5.7087 6.58476L3.02115 8.0507C2.69989 8.22593 2.5 8.56265 2.5 8.92859V16.9183C2.5 17.4706 2.94772 17.9183 3.5 17.9183H14.0351C14.4827 17.9183 14.8757 17.6209 14.9974 17.1903Z" stroke="currentColor" stroke-width="1.5" stroke-linecap="round" stroke-linejoin="round"/>
</svg>
