<svg width="20" height="20" viewBox="0 0 20 20" fill="none" xmlns="http://www.w3.org/2000/svg">
<path d="M5.00258 2.81317L2.85947 10.3965C2.67911 11.0347 3.15859 11.6685 3.82178 11.6685L8.38554 11.6685C8.67857 11.6685 8.89543 11.9411 8.82954 12.2266L8.62142 13.1284C8.43052 13.9556 8.36923 14.8075 8.43973 15.6535L8.47803 16.1132C8.51912 16.6062 8.73365 17.0688 9.0835 17.4186C9.40354 17.7387 9.8376 17.9185 10.2902 17.9185L10.3898 17.9185C10.6636 17.9185 10.9158 17.7701 11.0487 17.5308L12.1562 15.5372C12.653 14.6431 13.3934 13.9084 14.2913 13.4187L16.9789 11.9527C17.3001 11.7775 17.5 11.4408 17.5 11.0748L17.5 3.08512C17.5 2.53284 17.0523 2.08512 16.5 2.08512L5.96489 2.08512C5.51735 2.08512 5.1243 2.38249 5.00258 2.81317Z" stroke="currentColor" stroke-width="1.5" stroke-linecap="round" stroke-linejoin="round"/>
</svg>
