<svg width="16" height="16" viewBox="0 0 16 16" fill="none" xmlns="http://www.w3.org/2000/svg">
<g clip-path="url(#clip0_2858_19164)">
<path d="M8 15C11.866 15 15 11.866 15 8C15 4.13401 11.866 1 8 1C4.13401 1 1 4.13401 1 8C1 11.866 4.13401 15 8 15Z" stroke="#ABAAA8" stroke-width="1.2" stroke-linejoin="round"/>
<path d="M7.49312 9.42814C7.50836 8.05803 7.89941 7.63968 8.56979 7.21086C8.9964 6.94416 9.32143 6.55719 9.32143 6.0081C9.32143 5.35442 8.83388 4.9413 8.22444 4.9413C7.67595 4.9413 7.14269 5.28644 7.09699 6.06039H6C6.04063 4.72689 7.01573 4 8.22444 4C9.54489 4 10.4286 4.81579 10.4286 6.0081C10.4286 6.85003 10.0375 7.40958 9.39253 7.81748C8.78309 8.19922 8.5444 8.57574 8.52916 9.42814V9.49089H7.49312V9.42814ZM7.3306 11.0074C7.32552 10.5995 7.65564 10.2648 8.05177 10.2648C8.44282 10.2648 8.76786 10.5995 8.77294 11.0074C8.76786 11.4153 8.44282 11.7448 8.05177 11.75C7.65564 11.7448 7.32552 11.4153 7.3306 11.0074Z" fill="#ABAAA8"/>
</g>
<defs>
<clipPath id="clip0_2858_19164">
<rect width="16" height="16" fill="white"/>
</clipPath>
</defs>
</svg>
