<svg width="24" height="24" viewBox="0 0 24 24" fill="none" xmlns="http://www.w3.org/2000/svg">
<g clip-path="url(#clip0_1609_7931)">
<path d="M9.80078 19.7114L11.582 18.8433L11.9766 18.6509L12.3721 18.8433L14.1533 19.7114V15.8999H15.9541V22.5933L14.6592 21.9614L11.9766 20.6528L9.29492 21.9614L8 22.5933V15.8999H9.80078V19.7114Z" fill="#161616"/>
<circle cx="12" cy="9.3999" r="7.1" fill="#161616" stroke="#161616" stroke-width="1.8"/>
<path d="M11.5244 6.26054C11.6741 5.77969 12.3259 5.77969 12.4756 6.26054L12.959 7.81342C13.026 8.02846 13.2179 8.17405 13.4346 8.17405H14.999C15.4834 8.17405 15.6848 8.82103 15.2929 9.11821L14.0273 10.0779C13.852 10.2108 13.7787 10.4464 13.8456 10.6615L14.3291 12.2143C14.4787 12.6952 13.9515 13.095 13.5596 12.7979L12.2939 11.8381C12.1187 11.7052 11.8813 11.7052 11.7061 11.8381L10.4404 12.7979C10.0486 13.095 9.52125 12.6952 9.67094 12.2143L10.1544 10.6615C10.2213 10.4464 10.148 10.2108 9.97271 10.0779L8.70709 9.11821C8.31519 8.82103 8.5166 8.17405 9.00101 8.17405H10.5654C10.782 8.17405 10.974 8.02846 11.041 7.81342L11.5244 6.26054Z" fill="white"/>
</g>
<defs>
<clipPath id="clip0_1609_7931">
<rect width="24" height="24" fill="white"/>
</clipPath>
</defs>
</svg>
