<svg width="24" height="24" viewBox="0 0 24 24" fill="none" xmlns="http://www.w3.org/2000/svg">
<path d="M12.8887 4H19.9998V11.1111" stroke="#161616" stroke-width="1.6"/>
<path d="M20 20V20.8H20.8V20H20ZM4 20H3.2V20.8H4V20ZM4 4V3.2H3.2V4H4ZM20 20V19.2H4V20V20.8H20V20ZM4 20H4.8V4H4H3.2V20H4ZM4 4L4 4.8H9.33333V4V3.2H4V4ZM20 14.4327H19.2V17.2164H20H20.8V14.4327H20ZM20 17.2164H19.2V20H20H20.8V17.2164H20Z" fill="#161616"/>
<path d="M12.7998 11.2004L19.5998 4.40039" stroke="#161616" stroke-width="1.6" stroke-linejoin="round"/>
</svg>
