<svg width="48" height="12" viewBox="0 0 48 12" fill="none" xmlns="http://www.w3.org/2000/svg">
<path d="M0.0640352 9.56787V7.75987H2.40004C2.70937 7.75987 2.98137 7.69587 3.21604 7.56787C3.46137 7.4292 3.65337 7.24787 3.79204 7.02387C3.94137 6.79987 4.01604 6.5492 4.01604 6.27187C4.01604 5.80254 3.8187 5.43454 3.42404 5.16787C3.04004 4.9012 2.56537 4.73054 2.00004 4.65587C1.6267 4.60254 1.28537 4.47454 0.976035 4.27187C0.677369 4.05854 0.437369 3.79187 0.256035 3.47187C0.0853685 3.15187 3.51593e-05 2.8052 3.51593e-05 2.43187C3.51593e-05 2.01587 0.101369 1.64254 0.304035 1.31187C0.506702 0.970537 0.784035 0.70387 1.13604 0.51187C1.48804 0.309204 1.8827 0.20787 2.32004 0.20787H2.96004V2.01587H2.28804C2.16004 2.01587 2.05337 2.05854 1.96804 2.14387C1.8827 2.21854 1.84004 2.31454 1.84004 2.43187C1.84004 2.55987 1.87737 2.6612 1.95204 2.73587C2.03737 2.81054 2.14937 2.85854 2.28804 2.87987C2.88537 2.9332 3.45604 3.09854 4.00004 3.37587C4.54404 3.6532 4.9867 4.0372 5.32804 4.52787C5.68004 5.00787 5.85604 5.5892 5.85604 6.27187C5.85604 6.9012 5.70137 7.46654 5.39204 7.96787C5.09337 8.45854 4.6827 8.84787 4.16004 9.13587C3.63737 9.42387 3.0507 9.56787 2.40004 9.56787H0.0640352ZM10.7042 9.75987C10.0535 9.75987 9.43483 9.63187 8.84816 9.37587C8.26149 9.1092 7.73883 8.75187 7.28016 8.30387C6.83216 7.8452 6.47483 7.32254 6.20816 6.73587C5.95216 6.1492 5.82416 5.53054 5.82416 4.87987C5.82416 4.2292 5.95216 3.61054 6.20816 3.02387C6.47483 2.4372 6.83216 1.91987 7.28016 1.47187C7.73883 1.0132 8.26149 0.655871 8.84816 0.399871C9.43483 0.133204 10.0535 -0.0001297 10.7042 -0.0001297C11.3548 -0.0001297 11.9735 0.133204 12.5602 0.399871C13.1468 0.655871 13.6695 1.0132 14.1282 1.47187C14.5868 1.91987 14.9442 2.4372 15.2002 3.02387C15.4668 3.61054 15.6002 4.2292 15.6002 4.87987C15.6002 5.53054 15.4668 6.1492 15.2002 6.73587C14.9442 7.32254 14.5868 7.8452 14.1282 8.30387C13.6695 8.75187 13.1468 9.1092 12.5602 9.37587C11.9735 9.63187 11.3548 9.75987 10.7042 9.75987ZM10.7042 7.93587C11.1308 7.93587 11.5255 7.8612 11.8882 7.71187C12.2508 7.55187 12.5655 7.3332 12.8322 7.05587C13.1095 6.77854 13.3228 6.4532 13.4722 6.07987C13.6215 5.70654 13.6962 5.30654 13.6962 4.87987C13.6962 4.44254 13.6215 4.04254 13.4722 3.67987C13.3228 3.30654 13.1095 2.9812 12.8322 2.70387C12.5655 2.42654 12.2508 2.2132 11.8882 2.06387C11.5255 1.90387 11.1308 1.82387 10.7042 1.82387C10.2775 1.82387 9.88283 1.90387 9.52016 2.06387C9.15749 2.2132 8.83749 2.42654 8.56016 2.70387C8.29349 2.9812 8.08549 3.30654 7.93616 3.67987C7.78683 4.04254 7.71216 4.44254 7.71216 4.87987C7.71216 5.30654 7.78683 5.70654 7.93616 6.07987C8.08549 6.4532 8.29349 6.77854 8.56016 7.05587C8.83749 7.3332 9.15749 7.55187 9.52016 7.71187C9.88283 7.8612 10.2775 7.93587 10.7042 7.93587ZM18.7217 0.0478706C19.1803 0.0478706 19.5857 0.154537 19.9377 0.36787C20.3003 0.581204 20.5883 0.869204 20.8017 1.23187C21.015 1.59454 21.1217 2.0052 21.1217 2.46387V9.56787H19.2657L19.2337 2.39987C19.2337 2.25054 19.1857 2.12787 19.0897 2.03187C18.9937 1.93587 18.871 1.88787 18.7217 1.88787C18.583 1.88787 18.4603 1.93587 18.3537 2.03187C18.2577 2.12787 18.2097 2.25054 18.2097 2.39987V9.56787H16.3217V2.46387C16.3217 2.0052 16.4283 1.59454 16.6417 1.23187C16.855 0.869204 17.1377 0.581204 17.4897 0.36787C17.8523 0.154537 18.263 0.0478706 18.7217 0.0478706ZM21.6497 0.0478706C22.1083 0.0478706 22.5137 0.154537 22.8657 0.36787C23.2283 0.581204 23.5163 0.869204 23.7297 1.23187C23.943 1.59454 24.0497 2.0052 24.0497 2.46387V9.56787H22.1937L22.1617 2.39987C22.1617 2.25054 22.1137 2.12787 22.0177 2.03187C21.9217 1.93587 21.799 1.88787 21.6497 1.88787C21.511 1.88787 21.3883 1.93587 21.2817 2.03187C21.1857 2.12787 21.1377 2.25054 21.1377 2.39987V9.56787H19.2497V2.46387C19.2497 2.0052 19.3563 1.59454 19.5697 1.23187C19.783 0.869204 20.071 0.581204 20.4337 0.36787C20.7963 0.154537 21.2017 0.0478706 21.6497 0.0478706ZM27.2485 0.0478706C27.6005 0.0478706 27.9312 0.111871 28.2405 0.239871C28.5499 0.357204 28.8165 0.527871 29.0405 0.751871C29.2645 0.965204 29.4405 1.2212 29.5685 1.51987C29.6965 1.81854 29.7605 2.13854 29.7605 2.47987C29.7605 2.8212 29.6965 3.1412 29.5685 3.43987C29.4405 3.72787 29.2592 3.98387 29.0245 4.20787C28.8005 4.4212 28.5339 4.59187 28.2245 4.71987C27.9152 4.8372 27.5845 4.89587 27.2325 4.89587C27.1259 4.89587 26.9979 4.8692 26.8485 4.81587C26.6992 4.75187 26.5712 4.6772 26.4645 4.59187L27.0085 4.11187C27.0192 4.14387 27.0299 4.17587 27.0405 4.20787C27.0619 4.2292 27.0779 4.25587 27.0885 4.28787C27.0992 4.31987 27.1099 4.35187 27.1205 4.38387L29.3765 9.56787H27.3285L25.2165 4.73587C25.1205 4.51187 25.0352 4.28254 24.9605 4.04787C24.8859 3.8132 24.8272 3.57854 24.7845 3.34387C24.7419 3.1092 24.7205 2.87987 24.7205 2.65587C24.7205 2.28254 24.7845 1.9412 24.9125 1.63187C25.0405 1.31187 25.2165 1.03454 25.4405 0.79987C25.6752 0.565204 25.9472 0.38387 26.2565 0.255871C26.5659 0.117204 26.8965 0.0478706 27.2485 0.0478706ZM27.2325 1.79187C27.1045 1.79187 26.9872 1.82387 26.8805 1.88787C26.7845 1.9412 26.7045 2.0212 26.6405 2.12787C26.5872 2.23454 26.5605 2.35187 26.5605 2.47987C26.5605 2.60787 26.5872 2.7252 26.6405 2.83187C26.7045 2.92787 26.7845 3.00787 26.8805 3.07187C26.9872 3.1252 27.1045 3.15187 27.2325 3.15187C27.3605 3.15187 27.4779 3.1252 27.5845 3.07187C27.6912 3.00787 27.7712 2.92787 27.8245 2.83187C27.8885 2.7252 27.9205 2.60787 27.9205 2.47987C27.9205 2.35187 27.8885 2.23454 27.8245 2.12787C27.7712 2.0212 27.6912 1.9412 27.5845 1.88787C27.4779 1.82387 27.3605 1.79187 27.2325 1.79187ZM30.1715 9.56787V7.75987H32.5075C32.8169 7.75987 33.0889 7.69587 33.3235 7.56787C33.5689 7.4292 33.7609 7.24787 33.8995 7.02387C34.0489 6.79987 34.1235 6.5492 34.1235 6.27187C34.1235 5.80254 33.9262 5.43454 33.5315 5.16787C33.1475 4.9012 32.6729 4.73054 32.1075 4.65587C31.7342 4.60254 31.3929 4.47454 31.0835 4.27187C30.7849 4.05854 30.5449 3.79187 30.3635 3.47187C30.1929 3.15187 30.1075 2.8052 30.1075 2.43187C30.1075 2.01587 30.2089 1.64254 30.4115 1.31187C30.6142 0.970537 30.8915 0.70387 31.2435 0.51187C31.5955 0.309204 31.9902 0.20787 32.4275 0.20787H33.0675V2.01587H32.3955C32.2675 2.01587 32.1609 2.05854 32.0755 2.14387C31.9902 2.21854 31.9475 2.31454 31.9475 2.43187C31.9475 2.55987 31.9849 2.6612 32.0595 2.73587C32.1449 2.81054 32.2569 2.85854 32.3955 2.87987C32.9929 2.9332 33.5635 3.09854 34.1075 3.37587C34.6515 3.6532 35.0942 4.0372 35.4355 4.52787C35.7875 5.00787 35.9635 5.5892 35.9635 6.27187C35.9635 6.9012 35.8089 7.46654 35.4995 7.96787C35.2009 8.45854 34.7902 8.84787 34.2675 9.13587C33.7449 9.42387 33.1582 9.56787 32.5075 9.56787H30.1715ZM38.7238 9.72787C38.3718 9.72787 38.0411 9.6692 37.7318 9.55187C37.4225 9.42387 37.1558 9.2532 36.9318 9.03987C36.7078 8.81587 36.5318 8.55454 36.4038 8.25587C36.2758 7.9572 36.2118 7.6372 36.2118 7.29587C36.2118 6.95454 36.2758 6.63987 36.4038 6.35187C36.5318 6.0532 36.7078 5.7972 36.9318 5.58387C37.1665 5.35987 37.4385 5.1892 37.7478 5.07187C38.0571 4.94387 38.3878 4.87987 38.7398 4.87987C38.8571 4.87987 38.9851 4.91187 39.1238 4.97587C39.2731 5.0292 39.4011 5.09854 39.5078 5.18387L38.9638 5.66387C38.9531 5.63187 38.9425 5.59987 38.9318 5.56787C38.9211 5.53587 38.9051 5.5092 38.8838 5.48787C38.8731 5.45587 38.8625 5.42387 38.8518 5.39187L36.5958 0.20787H38.6438L40.7558 5.03987C40.8518 5.2532 40.9371 5.48254 41.0118 5.72787C41.0865 5.96254 41.1451 6.1972 41.1878 6.43187C41.2305 6.66654 41.2518 6.89587 41.2518 7.11987C41.2518 7.48254 41.1878 7.82387 41.0598 8.14387C40.9318 8.46387 40.7505 8.7412 40.5158 8.97587C40.2918 9.21054 40.0251 9.3972 39.7158 9.53587C39.4065 9.66387 39.0758 9.72787 38.7238 9.72787ZM38.7398 7.98387C38.8678 7.98387 38.9798 7.95187 39.0758 7.88787C39.1825 7.82387 39.2625 7.74387 39.3158 7.64787C39.3798 7.5412 39.4118 7.42387 39.4118 7.29587C39.4118 7.16787 39.3798 7.05587 39.3158 6.95987C39.2625 6.8532 39.1825 6.7732 39.0758 6.71987C38.9798 6.65587 38.8678 6.62387 38.7398 6.62387C38.6118 6.62387 38.4945 6.65587 38.3878 6.71987C38.2918 6.7732 38.2118 6.8532 38.1478 6.95987C38.0838 7.05587 38.0518 7.16787 38.0518 7.29587C38.0518 7.42387 38.0838 7.5412 38.1478 7.64787C38.2118 7.74387 38.2918 7.82387 38.3878 7.88787C38.4945 7.95187 38.6118 7.98387 38.7398 7.98387ZM40.368 11.4079L42.88 5.67987L40.48 0.20787H42.56L43.904 3.29587L45.232 0.20787H47.216L42.304 11.4079H40.368Z" fill="#17171B"/>
</svg>
