<svg width="70" height="17" viewBox="0 0 70 17" fill="none" xmlns="http://www.w3.org/2000/svg">
<path d="M0.0943332 14.0957V11.4321H3.53576C3.99148 11.4321 4.39219 11.3378 4.7379 11.1493C5.09933 10.945 5.38219 10.6778 5.58648 10.3478C5.80648 10.0178 5.91648 9.64856 5.91648 9.23999C5.91648 8.54856 5.62576 8.00642 5.04433 7.61356C4.47862 7.2207 3.77933 6.96927 2.94648 6.85927C2.39648 6.7807 1.89362 6.59213 1.4379 6.29356C0.997905 5.97927 0.644333 5.58642 0.37719 5.11499C0.125762 4.64356 4.74364e-05 4.13285 4.74364e-05 3.58285C4.74364e-05 2.96999 0.149333 2.41999 0.447905 1.93285C0.746476 1.42999 1.15505 1.03713 1.67362 0.754274C2.19219 0.455702 2.77362 0.306417 3.4179 0.306417H4.36076V2.96999H3.37076C3.18219 2.96999 3.02505 3.03285 2.89933 3.15856C2.77362 3.26856 2.71076 3.40999 2.71076 3.58285C2.71076 3.77142 2.76576 3.9207 2.87576 4.0307C3.00148 4.1407 3.16648 4.21142 3.37076 4.24285C4.25076 4.32142 5.09148 4.56499 5.8929 4.97356C6.69433 5.38213 7.34648 5.94785 7.84933 6.6707C8.3679 7.37785 8.62719 8.23427 8.62719 9.23999C8.62719 10.1671 8.39933 11 7.94362 11.7386C7.50362 12.4614 6.89862 13.035 6.12862 13.4593C5.35862 13.8836 4.49433 14.0957 3.53576 14.0957H0.0943332ZM15.7695 14.3786C14.8109 14.3786 13.8995 14.19 13.0352 13.8128C12.1709 13.42 11.4009 12.8936 10.7252 12.2336C10.0652 11.5578 9.5388 10.7878 9.14595 9.92356C8.7688 9.05927 8.58023 8.14785 8.58023 7.18927C8.58023 6.2307 8.7688 5.31927 9.14595 4.45499C9.5388 3.5907 10.0652 2.82856 10.7252 2.16856C11.4009 1.49285 12.1709 0.966417 13.0352 0.589274C13.8995 0.196417 14.8109 -1.21667e-05 15.7695 -1.21667e-05C16.7281 -1.21667e-05 17.6395 0.196417 18.5038 0.589274C19.3681 0.966417 20.1381 1.49285 20.8138 2.16856C21.4895 2.82856 22.0159 3.5907 22.3931 4.45499C22.7859 5.31927 22.9824 6.2307 22.9824 7.18927C22.9824 8.14785 22.7859 9.05927 22.3931 9.92356C22.0159 10.7878 21.4895 11.5578 20.8138 12.2336C20.1381 12.8936 19.3681 13.42 18.5038 13.8128C17.6395 14.19 16.7281 14.3786 15.7695 14.3786ZM15.7695 11.6914C16.3981 11.6914 16.9795 11.5814 17.5138 11.3614C18.0481 11.1257 18.5117 10.8036 18.9045 10.395C19.3131 9.98642 19.6274 9.50713 19.8474 8.95713C20.0674 8.40713 20.1774 7.81785 20.1774 7.18927C20.1774 6.54499 20.0674 5.9557 19.8474 5.42142C19.6274 4.87142 19.3131 4.39213 18.9045 3.98356C18.5117 3.57499 18.0481 3.2607 17.5138 3.0407C16.9795 2.80499 16.3981 2.68713 15.7695 2.68713C15.1409 2.68713 14.5595 2.80499 14.0252 3.0407C13.4909 3.2607 13.0195 3.57499 12.6109 3.98356C12.2181 4.39213 11.9117 4.87142 11.6917 5.42142C11.4717 5.9557 11.3617 6.54499 11.3617 7.18927C11.3617 7.81785 11.4717 8.40713 11.6917 8.95713C11.9117 9.50713 12.2181 9.98642 12.6109 10.395C13.0195 10.8036 13.4909 11.1257 14.0252 11.3614C14.5595 11.5814 15.1409 11.6914 15.7695 11.6914ZM27.581 0.0707026C28.2567 0.0707026 28.8539 0.227845 29.3724 0.542131C29.9067 0.856417 30.331 1.2807 30.6453 1.81499C30.9596 2.34927 31.1167 2.95427 31.1167 3.62999V14.0957H28.3824L28.3353 3.5357C28.3353 3.3157 28.2646 3.13499 28.1232 2.99356C27.9817 2.85213 27.801 2.78142 27.581 2.78142C27.3767 2.78142 27.196 2.85213 27.0389 2.99356C26.8974 3.13499 26.8267 3.3157 26.8267 3.5357V14.0957H24.0453V3.62999C24.0453 2.95427 24.2024 2.34927 24.5167 1.81499C24.831 1.2807 25.2474 0.856417 25.766 0.542131C26.3003 0.227845 26.9053 0.0707026 27.581 0.0707026ZM31.8946 0.0707026C32.5703 0.0707026 33.1674 0.227845 33.686 0.542131C34.2203 0.856417 34.6446 1.2807 34.9589 1.81499C35.2732 2.34927 35.4303 2.95427 35.4303 3.62999V14.0957H32.696L32.6489 3.5357C32.6489 3.3157 32.5782 3.13499 32.4367 2.99356C32.2953 2.85213 32.1146 2.78142 31.8946 2.78142C31.6903 2.78142 31.5096 2.85213 31.3524 2.99356C31.211 3.13499 31.1403 3.3157 31.1403 3.5357V14.0957H28.3589V3.62999C28.3589 2.95427 28.516 2.34927 28.8303 1.81499C29.1446 1.2807 29.5689 0.856417 30.1032 0.542131C30.6374 0.227845 31.2346 0.0707026 31.8946 0.0707026ZM40.1429 0.0707026C40.6615 0.0707026 41.1486 0.164989 41.6044 0.35356C42.0601 0.526417 42.4529 0.777846 42.7829 1.10785C43.1129 1.42213 43.3722 1.79927 43.5608 2.23927C43.7494 2.67927 43.8436 3.1507 43.8436 3.65356C43.8436 4.15642 43.7494 4.62785 43.5608 5.06785C43.3722 5.49213 43.1051 5.86927 42.7594 6.19927C42.4294 6.51356 42.0365 6.76499 41.5808 6.95356C41.1251 7.12642 40.6379 7.21285 40.1194 7.21285C39.9622 7.21285 39.7736 7.17356 39.5536 7.09499C39.3336 7.0007 39.1451 6.8907 38.9879 6.76499L39.7894 6.05785C39.8051 6.10499 39.8208 6.15213 39.8365 6.19927C39.8679 6.2307 39.8915 6.26999 39.9072 6.31713C39.9229 6.36427 39.9386 6.41142 39.9544 6.45856L43.2779 14.0957H40.2608L37.1494 6.97713C37.0079 6.64713 36.8822 6.30927 36.7722 5.96356C36.6622 5.61785 36.5758 5.27213 36.5129 4.92642C36.4501 4.5807 36.4186 4.24285 36.4186 3.91285C36.4186 3.36285 36.5129 2.85999 36.7015 2.40427C36.8901 1.93285 37.1494 1.52427 37.4794 1.17856C37.8251 0.832845 38.2258 0.565702 38.6815 0.377131C39.1372 0.172846 39.6244 0.0707026 40.1429 0.0707026ZM40.1194 2.63999C39.9308 2.63999 39.7579 2.68713 39.6008 2.78142C39.4594 2.85999 39.3415 2.97785 39.2472 3.13499C39.1686 3.29213 39.1294 3.46499 39.1294 3.65356C39.1294 3.84213 39.1686 4.01499 39.2472 4.17213C39.3415 4.31356 39.4594 4.43142 39.6008 4.5257C39.7579 4.60427 39.9308 4.64356 40.1194 4.64356C40.3079 4.64356 40.4808 4.60427 40.6379 4.5257C40.7951 4.43142 40.9129 4.31356 40.9915 4.17213C41.0858 4.01499 41.1329 3.84213 41.1329 3.65356C41.1329 3.46499 41.0858 3.29213 40.9915 3.13499C40.9129 2.97785 40.7951 2.85999 40.6379 2.78142C40.4808 2.68713 40.3079 2.63999 40.1194 2.63999ZM44.4491 14.0957V11.4321H47.8906C48.3463 11.4321 48.747 11.3378 49.0927 11.1493C49.4541 10.945 49.737 10.6778 49.9413 10.3478C50.1613 10.0178 50.2713 9.64856 50.2713 9.23999C50.2713 8.54856 49.9806 8.00642 49.3991 7.61356C48.8334 7.2207 48.1341 6.96927 47.3013 6.85927C46.7513 6.7807 46.2484 6.59213 45.7927 6.29356C45.3527 5.97927 44.9991 5.58642 44.732 5.11499C44.4806 4.64356 44.3548 4.13285 44.3548 3.58285C44.3548 2.96999 44.5041 2.41999 44.8027 1.93285C45.1013 1.42999 45.5098 1.03713 46.0284 0.754274C46.547 0.455702 47.1284 0.306417 47.7727 0.306417H48.7156V2.96999H47.7256C47.537 2.96999 47.3798 3.03285 47.2541 3.15856C47.1284 3.26856 47.0656 3.40999 47.0656 3.58285C47.0656 3.77142 47.1206 3.9207 47.2306 4.0307C47.3563 4.1407 47.5213 4.21142 47.7256 4.24285C48.6056 4.32142 49.4463 4.56499 50.2477 4.97356C51.0491 5.38213 51.7013 5.94785 52.2041 6.6707C52.7227 7.37785 52.982 8.23427 52.982 9.23999C52.982 10.1671 52.7541 11 52.2984 11.7386C51.8584 12.4614 51.2534 13.035 50.4834 13.4593C49.7134 13.8836 48.8491 14.0957 47.8906 14.0957H44.4491ZM57.0484 14.3314C56.5299 14.3314 56.0427 14.245 55.587 14.0721C55.1313 13.8836 54.7384 13.6321 54.4084 13.3178C54.0784 12.9878 53.8191 12.6028 53.6306 12.1628C53.442 11.7228 53.3477 11.2514 53.3477 10.7486C53.3477 10.2457 53.442 9.78213 53.6306 9.35785C53.8191 8.91785 54.0784 8.5407 54.4084 8.22642C54.7541 7.89642 55.1549 7.64499 55.6106 7.47213C56.0663 7.28356 56.5534 7.18927 57.072 7.18927C57.2449 7.18927 57.4334 7.23642 57.6377 7.3307C57.8577 7.40927 58.0463 7.51142 58.2034 7.63713L57.402 8.34427C57.3863 8.29713 57.3706 8.24999 57.3549 8.20285C57.3391 8.1557 57.3156 8.11642 57.2841 8.08499C57.2684 8.03785 57.2527 7.9907 57.237 7.94356L53.9134 0.306417H56.9306L60.042 7.42499C60.1834 7.73927 60.3091 8.07713 60.4191 8.43856C60.5291 8.78427 60.6156 9.12999 60.6784 9.4757C60.7413 9.82142 60.7727 10.1593 60.7727 10.4893C60.7727 11.0236 60.6784 11.5264 60.4899 11.9978C60.3013 12.4693 60.0341 12.8778 59.6884 13.2236C59.3584 13.5693 58.9656 13.8443 58.5099 14.0486C58.0541 14.2371 57.567 14.3314 57.0484 14.3314ZM57.072 11.7621C57.2606 11.7621 57.4256 11.715 57.567 11.6207C57.7241 11.5264 57.842 11.4086 57.9206 11.2671C58.0149 11.11 58.062 10.9371 58.062 10.7486C58.062 10.56 58.0149 10.395 57.9206 10.2536C57.842 10.0964 57.7241 9.97856 57.567 9.89999C57.4256 9.8057 57.2606 9.75856 57.072 9.75856C56.8834 9.75856 56.7106 9.8057 56.5534 9.89999C56.412 9.97856 56.2941 10.0964 56.1999 10.2536C56.1056 10.395 56.0584 10.56 56.0584 10.7486C56.0584 10.9371 56.1056 11.11 56.1999 11.2671C56.2941 11.4086 56.412 11.5264 56.5534 11.6207C56.7106 11.715 56.8834 11.7621 57.072 11.7621ZM59.4708 16.8064L63.1715 8.36785L59.6358 0.306417H62.7L64.68 4.8557L66.6365 0.306417H69.5593L62.3229 16.8064H59.4708Z" fill="black"/>
</svg>
