<svg width="20" height="20" viewBox="0 0 20 20" fill="none" xmlns="http://www.w3.org/2000/svg">
<path d="M9.16783 2.56117C9.42976 1.75502 10.5702 1.75502 10.8322 2.56117L12.0487 6.30522C12.1658 6.66574 12.5018 6.90983 12.8809 6.90983H16.8176C17.6652 6.90983 18.0177 7.99449 17.3319 8.49272L14.147 10.8067C13.8403 11.0295 13.712 11.4244 13.8292 11.785L15.0457 15.529C15.3076 16.3351 14.3849 17.0055 13.6992 16.5073L10.5143 14.1933C10.2076 13.9705 9.79236 13.9705 9.48569 14.1933L6.30081 16.5073C5.61506 17.0055 4.69239 16.3351 4.95432 15.529L6.17084 11.785C6.28798 11.4244 6.15965 11.0295 5.85297 10.8067L2.6681 8.49272C1.98235 7.99449 2.33477 6.90983 3.18241 6.90983H7.11914C7.49821 6.90983 7.83417 6.66574 7.95131 6.30522L9.16783 2.56117Z" fill="currentColor"/>
</svg>
