<svg width="16" height="16" viewBox="0 0 16 16" fill="none" xmlns="http://www.w3.org/2000/svg">
<path d="M7.33426 2.04893C7.54381 1.40402 8.45619 1.40402 8.66574 2.04894L9.63895 5.04418C9.73266 5.33259 10.0014 5.52786 10.3047 5.52786H13.4541C14.1322 5.52786 14.4141 6.3956 13.8655 6.79418L11.3176 8.64534C11.0723 8.82359 10.9696 9.13954 11.0633 9.42796L12.0365 12.4232C12.2461 13.0681 11.508 13.6044 10.9594 13.2058L8.41145 11.3547C8.16611 11.1764 7.83389 11.1764 7.58855 11.3547L5.04065 13.2058C4.49205 13.6044 3.75391 13.0681 3.96346 12.4232L4.93667 9.42796C5.03038 9.13954 4.92772 8.82359 4.68238 8.64534L2.13448 6.79418C1.58588 6.39559 1.86782 5.52786 2.54593 5.52786H5.69531C5.99857 5.52786 6.26734 5.33259 6.36105 5.04418L7.33426 2.04893Z" fill="currentColor"/>
</svg>
