<svg width="14" height="14" viewBox="0 0 14 14" fill="none" xmlns="http://www.w3.org/2000/svg">
<path d="M13.2419 4.34992C13.1684 4.07335 13.0235 3.82094 12.8218 3.61794C12.6201 3.41495 12.3686 3.26848 12.0925 3.19322C11.0762 2.91992 7.01367 2.91992 7.01367 2.91992C7.01367 2.91992 2.95117 2.91992 1.93481 3.19322C1.65872 3.26848 1.40724 3.41495 1.20554 3.61794C1.00383 3.82094 0.858987 4.07335 0.78549 4.34992C0.513672 5.37072 0.513672 7.49947 0.513672 7.49947C0.513672 7.49947 0.513672 9.62822 0.78549 10.649C0.858987 10.9256 1.00383 11.178 1.20554 11.381C1.40724 11.584 1.65872 11.7304 1.93481 11.8057C2.95117 12.079 7.01367 12.079 7.01367 12.079C7.01367 12.079 11.0762 12.079 12.0925 11.8057C12.3686 11.7304 12.6201 11.584 12.8218 11.381C13.0235 11.178 13.1684 10.9256 13.2419 10.649C13.5137 9.62822 13.5137 7.49947 13.5137 7.49947C13.5137 7.49947 13.5137 5.37072 13.2419 4.34992Z" fill="#3D3D3C"/>
<path d="M5.68359 9.43145V5.56543L9.08132 7.49844L5.68359 9.43145Z" fill="#F9F8F6"/>
</svg>
